<?xml version="1.0" encoding="UTF-8" standalone="no"?>
<!-- Created with Inkscape (http://www.inkscape.org/) -->

<svg
   version="1.1"
   id="svg266"
   width="830"
   height="608"
   viewBox="0 0 830 608"
   sodipodi:docname="calamares-welcome.svg"
   inkscape:version="1.2.1 (9c6d41e410, 2022-07-14)"
   xml:space="preserve"
   inkscape:export-filename="calamares-welcome.png"
   inkscape:export-xdpi="96"
   inkscape:export-ydpi="96"
   xmlns:inkscape="http://www.inkscape.org/namespaces/inkscape"
   xmlns:sodipodi="http://sodipodi.sourceforge.net/DTD/sodipodi-0.dtd"
   xmlns:xlink="http://www.w3.org/1999/xlink"
   xmlns="http://www.w3.org/2000/svg"
   xmlns:svg="http://www.w3.org/2000/svg"><defs
     id="defs270"><rect
       x="21.525513"
       y="310.01324"
       width="368.75659"
       height="230.7162"
       id="rect1174" /><linearGradient
       inkscape:collect="always"
       id="linearGradient1092"><stop
         style="stop-color:#1f447b;stop-opacity:1;"
         offset="0"
         id="stop1088" /><stop
         style="stop-color:#1f86bc;stop-opacity:1;"
         offset="1"
         id="stop1090" /></linearGradient><linearGradient
       inkscape:collect="always"
       xlink:href="#linearGradient1092"
       id="linearGradient1094"
       x1="2.9508762"
       y1="569.08533"
       x2="730.16797"
       y2="149.22635"
       gradientUnits="userSpaceOnUse"
       gradientTransform="matrix(0.99981897,0,0,0.99977521,5.9743678,5.8743221)" /><style
       id="style369">.cls-1,.cls-4{fill:#4374ba;}.cls-2{fill:#fff;}.cls-3{fill:none;}.cls-3,.cls-7{stroke:#4374ba;stroke-miterlimit:10;stroke-width:2px;}.cls-4{font-size:24px;font-family:Lato-Bold, Lato;font-weight:700;letter-spacing:-0.02em;}.cls-5{letter-spacing:-0.01em;}.cls-6{letter-spacing:0em;}.cls-7{fill:#4474ba;}</style><style
       id="style500">.cls-1{fill:none;}.cls-1,.cls-5{stroke:#4374ba;}.cls-1,.cls-5,.cls-6,.cls-7{stroke-miterlimit:10;}.cls-1,.cls-5,.cls-7{stroke-width:2px;}.cls-2{font-size:24px;font-family:Lato-Bold, Lato;font-weight:700;}.cls-2,.cls-6{fill:#4374ba;}.cls-3{letter-spacing:-0.03em;}.cls-4{letter-spacing:-0.02em;}.cls-5,.cls-8{fill:#4474ba;}.cls-6{stroke:#4474ba;}.cls-7{fill:#fff;stroke:#fff;}</style><style
       id="style369-8">.cls-1,.cls-4{fill:#4374ba;}.cls-2{fill:#fff;}.cls-3{fill:none;}.cls-3,.cls-7{stroke:#4374ba;stroke-miterlimit:10;stroke-width:2px;}.cls-4{font-size:24px;font-family:Lato-Bold, Lato;font-weight:700;letter-spacing:-0.02em;}.cls-5{letter-spacing:-0.01em;}.cls-6{letter-spacing:0em;}.cls-7{fill:#4474ba;}</style><style
       id="style656">.cls-1{fill:none;}.cls-1,.cls-2{stroke:#4374ba;}.cls-1,.cls-2,.cls-4{stroke-miterlimit:10;stroke-width:2px;}.cls-2,.cls-8{fill:#4474ba;}.cls-3,.cls-4{fill:#fff;}.cls-4{stroke:#fff;}.cls-5{font-size:24px;fill:#4374ba;font-family:Lato-Bold, Lato;font-weight:700;letter-spacing:-0.02em;}.cls-6{letter-spacing:-0.01em;}.cls-7{letter-spacing:-0.02em;}</style><style
       id="style765">.cls-1,.cls-4{fill:#4374ba;}.cls-2{fill:#fff;}.cls-3{fill:none;}.cls-3,.cls-7{stroke:#4374ba;stroke-miterlimit:10;stroke-width:2px;}.cls-4{font-size:24px;font-family:Lato-Bold, Lato;font-weight:700;letter-spacing:-0.02em;}.cls-5{letter-spacing:-0.01em;}.cls-6{letter-spacing:0em;}.cls-7{fill:#4474ba;}</style><style
       id="style823">.cls-1{fill:none;}.cls-1,.cls-2{stroke:#4374ba;}.cls-1,.cls-2,.cls-4{stroke-miterlimit:10;stroke-width:2px;}.cls-2,.cls-6{fill:#4474ba;}.cls-3{fill:#fff;}.cls-4,.cls-5{fill:#4374ba;}.cls-4{stroke:#fff;}.cls-5{font-size:24px;font-family:Lato-Bold, Lato;font-weight:700;}</style><style
       id="style369-0">.cls-1,.cls-4{fill:#4374ba;}.cls-2{fill:#fff;}.cls-3{fill:none;}.cls-3,.cls-7{stroke:#4374ba;stroke-miterlimit:10;stroke-width:2px;}.cls-4{font-size:24px;font-family:Lato-Bold, Lato;font-weight:700;letter-spacing:-0.02em;}.cls-5{letter-spacing:-0.01em;}.cls-6{letter-spacing:0em;}.cls-7{fill:#4474ba;}</style><style
       id="style939">.cls-1{fill:none;}.cls-1,.cls-5{stroke:#4374ba;}.cls-1,.cls-5,.cls-6,.cls-7{stroke-miterlimit:10;}.cls-1,.cls-5,.cls-7{stroke-width:2px;}.cls-2{font-size:24px;font-family:Lato-Bold, Lato;font-weight:700;}.cls-2,.cls-6{fill:#4374ba;}.cls-3{letter-spacing:-0.03em;}.cls-4{letter-spacing:-0.02em;}.cls-5,.cls-8{fill:#4474ba;}.cls-6{stroke:#4474ba;}.cls-7{fill:#fff;stroke:#fff;}</style><style
       id="style369-4">.cls-1,.cls-4{fill:#4374ba;}.cls-2{fill:#fff;}.cls-3{fill:none;}.cls-3,.cls-7{stroke:#4374ba;stroke-miterlimit:10;stroke-width:2px;}.cls-4{font-size:24px;font-family:Lato-Bold, Lato;font-weight:700;letter-spacing:-0.02em;}.cls-5{letter-spacing:-0.01em;}.cls-6{letter-spacing:0em;}.cls-7{fill:#4474ba;}</style><style
       id="style1095">.cls-1{fill:none;}.cls-1,.cls-2{stroke:#4374ba;}.cls-1,.cls-2,.cls-4{stroke-miterlimit:10;stroke-width:2px;}.cls-2,.cls-8{fill:#4474ba;}.cls-3,.cls-4{fill:#fff;}.cls-4{stroke:#fff;}.cls-5{font-size:24px;fill:#4374ba;font-family:Lato-Bold, Lato;font-weight:700;letter-spacing:-0.02em;}.cls-6{letter-spacing:-0.01em;}.cls-7{letter-spacing:-0.02em;}</style><style
       id="style1204">.cls-1,.cls-4{fill:#4374ba;}.cls-2{fill:#fff;}.cls-3{fill:none;}.cls-3,.cls-7{stroke:#4374ba;stroke-miterlimit:10;stroke-width:2px;}.cls-4{font-size:24px;font-family:Lato-Bold, Lato;font-weight:700;letter-spacing:-0.02em;}.cls-5{letter-spacing:-0.01em;}.cls-6{letter-spacing:0em;}.cls-7{fill:#4474ba;}</style><style
       id="style6369">.cls-1{fill:#069;}.cls-2{fill:#2493b0;}.cls-3{fill:#4b5a5a;}.cls-4{fill:#ba4874;}.cls-5{fill:#32383d;}.cls-6{fill:#002a44;}.cls-7{fill:#fff;}.cls-8{fill:#e56353;}.cls-9{fill:#64798a;}.cls-10{fill:#dc8744;}.cls-11{fill:#2991c9;}</style><linearGradient
       gradientUnits="userSpaceOnUse"
       y2="25.988701"
       x2="-89.268021"
       y1="39.619446"
       x1="-89.134392"
       id="linearGradient896"
       xlink:href="#linearGradient894" /><linearGradient
       id="linearGradient894"><stop
         id="stop890"
         offset="0"
         style="stop-color:#000000;stop-opacity:1;" /><stop
         id="stop892"
         offset="1"
         style="stop-color:#000000;stop-opacity:0.7965517" /></linearGradient><filter
       style="color-interpolation-filters:sRGB"
       id="filter8134"
       x="-0.087588043"
       width="1.1757516"
       y="-0.08765699"
       height="1.1753161"><feGaussianBlur
         stdDeviation="19.430786"
         id="feGaussianBlur8136" /></filter><linearGradient
       xlink:href="#linearGradient4231"
       id="linearGradient8065"
       x1="-40.386776"
       y1="-3442.9312"
       x2="-51.071693"
       y2="-2356.637"
       gradientUnits="userSpaceOnUse"
       gradientTransform="matrix(0.01655892,0,0,0.01655892,-87.108183,77.968855)" /><linearGradient
       id="linearGradient4231"><stop
         style="stop-color:#016ed4;stop-opacity:1"
         offset="0"
         id="stop4233" /><stop
         style="stop-color:#00b1ff;stop-opacity:1"
         offset="1"
         id="stop4235" /></linearGradient><filter
       style="color-interpolation-filters:sRGB"
       inkscape:label="Blur"
       id="filter1060"
       x="-0.071528778"
       y="-0.1020403"
       width="1.1430576"
       height="1.2040806"><feGaussianBlur
         stdDeviation="5 5"
         result="fbSourceGraphic"
         id="feGaussianBlur1058" /><feColorMatrix
         result="fbSourceGraphicAlpha"
         in="fbSourceGraphic"
         values="0 0 0 -1 0 0 0 0 -1 0 0 0 0 -1 0 0 0 0 1 0"
         id="feColorMatrix1062" /><feGaussianBlur
         id="feGaussianBlur1064"
         stdDeviation="5 5"
         result="blur"
         in="fbSourceGraphic" /></filter></defs><sodipodi:namedview
     id="namedview268"
     pagecolor="#ffffff"
     bordercolor="#666666"
     borderopacity="1.0"
     inkscape:showpageshadow="2"
     inkscape:pageopacity="0.0"
     inkscape:pagecheckerboard="0"
     inkscape:deskcolor="#d1d1d1"
     showgrid="false"
     inkscape:zoom="1.0680457"
     inkscape:cx="192.87564"
     inkscape:cy="210.197"
     inkscape:window-width="2560"
     inkscape:window-height="1010"
     inkscape:window-x="1680"
     inkscape:window-y="0"
     inkscape:window-maximized="1"
     inkscape:current-layer="g272"
     showguides="true" /><g
     inkscape:groupmode="layer"
     inkscape:label="Image"
     id="g272"><rect
       style="opacity:1;fill:#eff0f2;fill-opacity:1;stroke:none;stroke-width:345.668;stroke-dasharray:none;stroke-opacity:1"
       id="rect39931"
       width="829.88202"
       height="607.99841"
       x="0.027364038"
       y="0.011587641"
       ry="0"
       rx="0" /><rect
       style="fill:url(#linearGradient1094);fill-opacity:1;stroke:none;stroke-width:0.453262;stroke-dasharray:none"
       id="rect486"
       width="820.28455"
       height="523.15179"
       x="6.8667302"
       y="55.760895"
       ry="19.676403" /><path
       id="text806"
       style="font-style:normal;font-weight:normal;font-size:2.1413px;line-height:0%;font-family:sans-serif;letter-spacing:13.9519px;word-spacing:0px;fill:#222d32;fill-opacity:1;stroke:none;stroke-width:0.178441px;stroke-linecap:butt;stroke-linejoin:miter;stroke-opacity:1;filter:url(#filter1060)"
       d="m 425.86986,201.15401 97.90429,117.59961 -97.90429,117.60157 h 140.16797 l 27.59765,-33.1504 27.59571,33.1504 H 761.39915 L 663.49681,318.75558 761.39915,201.15401 H 621.23119 l -27.59571,33.15039 -27.59961,-33.15039 z"
       sodipodi:nodetypes="ccccccccccccc" /><text
       xml:space="preserve"
       style="font-style:normal;font-weight:normal;font-size:38.2729px;line-height:1.05;font-family:sans-serif;letter-spacing:-1.4px;fill:#ffffff;fill-opacity:1;stroke:none;stroke-width:0.956822"
       x="31.537218"
       y="113.3697"
       id="text6411"><tspan
         id="tspan6409"
         x="31.537218"
         y="113.3697"
         style="font-style:normal;font-variant:normal;font-weight:bold;font-stretch:normal;font-family:'Lexend Deca';-inkscape-font-specification:'Lexend Deca Bold';fill:#ffffff;stroke-width:0.956822"
         sodipodi:role="line" /><tspan
         x="31.537218"
         y="153.55624"
         style="font-style:normal;font-variant:normal;font-weight:bold;font-stretch:normal;font-family:'Lexend Deca';-inkscape-font-specification:'Lexend Deca Bold';fill:#ffffff;stroke-width:0.956822"
         sodipodi:role="line"
         id="tspan1421" /></text><text
       xml:space="preserve"
       style="font-style:normal;font-weight:normal;font-size:17.5501px;line-height:1.35;font-family:sans-serif;letter-spacing:-0.62px;fill:#000000;fill-opacity:1;stroke:none;stroke-width:0.438752"
       x="30.656164"
       y="243.32545"
       id="text6465"><tspan
         sodipodi:role="line"
         x="30.656164"
         y="243.32545"
         style="font-style:normal;font-variant:normal;font-weight:bold;font-stretch:normal;font-family:Mulish;-inkscape-font-specification:'Mulish Bold';fill:#00ffff;stroke-width:0.438752"
         id="tspan446" /><tspan
         sodipodi:role="line"
         x="30.656164"
         y="267.0181"
         style="font-style:normal;font-variant:normal;font-weight:bold;font-stretch:normal;font-family:Mulish;-inkscape-font-specification:'Mulish Bold';fill:#00ffff;stroke-width:0.438752"
         id="tspan1425" /></text><g
       id="layer1-6"
       transform="matrix(1.649046,0,0,1.649046,421.60362,31.018506)"><g
         id="g902"
         transform="matrix(6.8741371,0,0,6.8741371,709.46169,-53.672915)"><path
           style="fill:url(#linearGradient896);fill-opacity:1;stroke:none;stroke-width:0.26428;stroke-miterlimit:4;stroke-dasharray:none;stroke-opacity:1"
           d="m -102.83099,41.702877 14.799736,-17.777087 14.799343,17.777087 h -12.36499 l -2.434485,-2.924315 -2.434611,2.924315 z"
           id="path8037" /><circle
           style="fill:#1a1a1a;fill-opacity:1;stroke:none;stroke-width:0.139348;stroke-miterlimit:4;stroke-dasharray:none;stroke-opacity:1"
           id="path8084"
           cx="-88.10144"
           cy="29.869637"
           r="5.0562463" /><path
           style="fill:#222d32;fill-opacity:1;stroke:#030405;stroke-width:16.5;stroke-miterlimit:4;stroke-dasharray:none;stroke-opacity:1;filter:url(#filter8134)"
           d="m 234.80281,-3592.0605 c -3.7135,0.037 -6.9628,0.2743 -9.6367,0.7461 -28.5216,5.0332 -150.996,23.4882 -176.16211,41.9434 -25.1661,18.4551 -70.46678,48.6542 -77.17774,75.498 -6.71096,26.8438 -5.03319,83.8867 -8.38867,93.9532 -3.35548,10.0664 -8.38867,109.0527 -8.38867,109.0527 l 45.29883,122.4765 55.36718,93.9532 73.82032,60.3984 c 0,0 52.00976,21.8105 60.39846,26.8438 8.3887,5.0332 107.3749,-6.711 127.5078,-6.711 20.1329,0 77.1758,-28.5214 92.2754,-35.2324 15.0997,-6.7109 90.5976,-95.6308 98.9863,-102.3418 8.3887,-6.711 73.8203,-135.8965 73.8203,-135.8965 0,0 -31.8769,-145.9648 -35.2324,-157.709 -3.3555,-11.7441 -73.8203,-114.0859 -73.8203,-114.0859 0,0 -75.498,-48.6544 -100.6641,-52.0098 -22.8068,-3.0409 -102.107,-21.2397 -138.0039,-20.8789 z m 32.5918,41.8614 a 270.82596,270.82593 0 0 1 270.8262,270.8261 270.82596,270.82593 0 0 1 -270.8262,270.8242 270.82596,270.82593 0 0 1 -223.96483,-119.0078 c 50.23801,-34.0353 88.92751,-60.0964 94.61719,-63.6797 10.32394,-6.5008 28.70054,-6.7183 62.94724,-0.746 59.0492,10.2964 82.5948,10.8366 118.3106,2.7324 43.0267,-9.7628 129.3508,-49.6978 137.3398,-63.5371 1.6121,-2.7925 1.1449,-4.7543 -1.082,-5.918 -6.6822,-3.4893 -29.1998,0.2394 -58.8985,10.5215 -48.2979,16.7249 -102.4471,18.7422 -126.7187,4.7305 -18.1638,-10.4856 -13.1592,-16.5839 23.2519,-28.3477 33.6628,-10.8773 46.1103,-24.1563 30.8868,-32.9453 -10.466,-6.0415 -192.75654,6.1422 -216.92386,14.5 -6.10147,2.1086 -50.12369,26.009 -106.48828,57.6308 a 270.82596,270.82593 0 0 1 -4.10352,-46.7578 270.82596,270.82593 0 0 1 270.82616,-270.8261 z"
           id="path8086"
           transform="matrix(0.01655892,0,0,0.01655892,-92.331116,84.080798)" /><path
           style="fill:url(#linearGradient8065);fill-opacity:1;stroke:none;stroke-width:0.26428;stroke-miterlimit:4;stroke-dasharray:none;stroke-opacity:1"
           d="m -102.83099,20.954423 14.799729,17.777104 14.799345,-17.777104 h -12.364988 l -2.434487,2.924331 -2.434613,-2.924331 z m 14.817614,4.21334 a 4.4845867,4.4845864 0 0 1 4.484591,4.484592 4.4845867,4.4845864 0 0 1 -4.484591,4.484557 4.4845867,4.4845864 0 0 1 -3.708616,-1.970643 c 0.831887,-0.563587 1.472544,-0.995129 1.566759,-1.054466 0.170953,-0.107646 0.47525,-0.111249 1.042338,-0.01235 0.977791,0.170496 1.367681,0.179442 1.959097,0.04525 0.712476,-0.161661 2.14191,-0.822943 2.274198,-1.052105 0.0267,-0.04624 0.01896,-0.07872 -0.01792,-0.098 -0.110649,-0.05778 -0.483517,0.004 -0.975295,0.174223 -0.799761,0.276948 -1.696413,0.310355 -2.098326,0.07833 -0.300772,-0.173629 -0.217901,-0.274609 0.385027,-0.469404 0.55742,-0.180116 0.763538,-0.400004 0.511453,-0.545541 -0.173306,-0.10004 -3.191842,0.101708 -3.592027,0.240104 -0.101034,0.03492 -0.829994,0.430683 -1.763331,0.954306 a 4.4845867,4.4845864 0 0 1 -0.06795,-0.774258 4.4845867,4.4845864 0 0 1 4.484589,-4.484592 z"
           id="path8039" /></g></g><text
       xml:space="preserve"
       id="text1172"
       style="font-style:normal;font-variant:normal;font-weight:normal;font-stretch:normal;font-size:16px;font-family:Mulish;-inkscape-font-specification:Mulish;white-space:pre;shape-inside:url(#rect1174);display:inline;fill:#ffffff;stroke-width:1.80283"
       transform="translate(17.116888,-7.1345446)"><tspan
         x="21.525391"
         y="324.82642"
         id="tspan1636"><tspan
           style="font-weight:600;-inkscape-font-specification:'Mulish, Semi-Bold'"
           id="tspan1634">O XIVA é uma customização GNU/Linux baseada </tspan></tspan><tspan
         x="21.525391"
         y="344.82642"
         id="tspan1640"><tspan
           style="font-weight:600;-inkscape-font-specification:'Mulish, Semi-Bold'"
           id="tspan1638">no BigLinux com o foco todo voltado para as </tspan></tspan><tspan
         x="21.525391"
         y="364.82642"
         id="tspan1648"><tspan
           style="font-weight:600;-inkscape-font-specification:'Mulish, Semi-Bold'"
           id="tspan1642">áreas de </tspan><tspan
           style="fill:#00ffff"
           id="tspan1644">Vídeo, Áudio, Produção Gráfica</tspan><tspan
           style="font-weight:600;-inkscape-font-specification:'Mulish, Semi-Bold'"
           id="tspan1646">, </tspan></tspan><tspan
         x="21.525391"
         y="384.82642"
         id="tspan1652"><tspan
           style="font-weight:600;-inkscape-font-specification:'Mulish, Semi-Bold'"
           id="tspan1650">Animação e muitos outros recursos multimídias. </tspan></tspan><tspan
         x="21.525391"
         y="404.82642"
         id="tspan1656"><tspan
           style="font-weight:600;-inkscape-font-specification:'Mulish, Semi-Bold'"
           id="tspan1654">Nela se encontra os principais Software Livres </tspan></tspan><tspan
         x="21.525391"
         y="424.82642"
         id="tspan1660"><tspan
           style="font-weight:600;-inkscape-font-specification:'Mulish, Semi-Bold'"
           id="tspan1658">destas respectivas áreas.</tspan></tspan></text><g
       inkscape:export-ydpi="12.847936"
       inkscape:export-xdpi="12.847936"
       inkscape:export-filename="/media/xiva/Arquivos/xiva-studio/identidade-visual-xiva/identidade-2019/xiva.png"
       transform="matrix(0.33382902,0,0,0.33382902,-569.00852,1157.7859)"
       id="g7778"
       style="fill:#ffffff"><g
         id="g7754"
         style="fill:#ffffff;fill-opacity:1"><path
           d="m 1945.2746,-2806.9744 h -33.753 l -32.4182,-52.7271 -32.4181,52.7271 h -31.6554 l 46.2435,-71.892 -43.2877,-67.506 h 32.6088 l 30.0345,50.1528 29.4624,-50.1528 h 31.846 l -43.7645,69.1269 z"
           style="font-style:normal;font-variant:normal;font-weight:bold;font-stretch:normal;font-size:medium;line-height:88%;font-family:'Open Sans';-inkscape-font-specification:'Open Sans Bold';letter-spacing:0px;word-spacing:0px;fill:#ffffff;fill-opacity:1;stroke:none;stroke-width:1px;stroke-linecap:butt;stroke-linejoin:miter;stroke-opacity:1"
           id="path7690"
           inkscape:connector-curvature="0" /><path
           d="m 1963.0092,-2806.9744 v -139.398 h 29.5577 v 139.398 z"
           style="font-style:normal;font-variant:normal;font-weight:bold;font-stretch:normal;font-size:medium;line-height:88%;font-family:'Open Sans';-inkscape-font-specification:'Open Sans Bold';letter-spacing:0px;word-spacing:0px;fill:#ffffff;fill-opacity:1;stroke:none;stroke-width:1px;stroke-linecap:butt;stroke-linejoin:miter;stroke-opacity:1"
           id="path7692"
           inkscape:connector-curvature="0" /><path
           d="m 2107.3653,-2946.3724 h 29.8438 l -47.3877,139.398 h -32.2275 l -47.2923,-139.398 h 29.8437 l 26.2206,82.9523 q 2.193,7.3418 4.4813,17.1626 2.3837,9.7254 2.9558,13.5393 1.0488,-8.772 7.1511,-30.7019 z"
           style="font-style:normal;font-variant:normal;font-weight:bold;font-stretch:normal;font-size:medium;line-height:88%;font-family:'Open Sans';-inkscape-font-specification:'Open Sans Bold';letter-spacing:0px;word-spacing:0px;fill:#ffffff;fill-opacity:1;stroke:none;stroke-width:1px;stroke-linecap:butt;stroke-linejoin:miter;stroke-opacity:1"
           id="path7694"
           inkscape:connector-curvature="0" /><path
           d="m 2240.1844,-2806.9744 -10.1068,-33.1809 h -50.8203 l -10.1068,33.1809 h -31.8461 l 49.1994,-139.9701 h 36.1367 l 49.39,139.9701 z m -17.1626,-57.9712 q -14.016,-45.0994 -15.8276,-51.011 -1.7163,-5.9115 -2.4791,-9.344 -3.1464,12.2045 -18.0207,60.355 z"
           style="font-style:normal;font-variant:normal;font-weight:bold;font-stretch:normal;font-size:medium;line-height:88%;font-family:'Open Sans';-inkscape-font-specification:'Open Sans Bold';letter-spacing:0px;word-spacing:0px;fill:#ffffff;fill-opacity:1;stroke:none;stroke-width:1px;stroke-linecap:butt;stroke-linejoin:miter;stroke-opacity:1"
           id="path7696"
           inkscape:connector-curvature="0" /><path
           id="path7712"
           style="font-style:normal;font-variant:normal;font-weight:bold;font-stretch:normal;font-size:medium;line-height:88%;font-family:'Open Sans';-inkscape-font-specification:'Open Sans Bold';letter-spacing:0px;word-spacing:0px;fill:#ffffff;fill-opacity:1;stroke:none;stroke-width:1px;stroke-linecap:butt;stroke-linejoin:miter;stroke-opacity:1"
           d="m 1945.2746,-2806.9744 h -33.753 l -32.4182,-52.7271 -32.4181,52.7271 h -31.6554 l 46.2435,-71.892 -43.2877,-67.506 h 32.6088 l 30.0345,50.1528 29.4624,-50.1528 h 31.846 l -43.7645,69.1269 z"
           inkscape:connector-curvature="0" /><path
           id="path7714"
           style="font-style:normal;font-variant:normal;font-weight:bold;font-stretch:normal;font-size:medium;line-height:88%;font-family:'Open Sans';-inkscape-font-specification:'Open Sans Bold';letter-spacing:0px;word-spacing:0px;fill:#ffffff;fill-opacity:1;stroke:none;stroke-width:1px;stroke-linecap:butt;stroke-linejoin:miter;stroke-opacity:1"
           d="m 1963.0092,-2806.9744 v -139.398 h 29.5577 v 139.398 z"
           inkscape:connector-curvature="0" /><path
           id="path7716"
           style="font-style:normal;font-variant:normal;font-weight:bold;font-stretch:normal;font-size:medium;line-height:88%;font-family:'Open Sans';-inkscape-font-specification:'Open Sans Bold';letter-spacing:0px;word-spacing:0px;fill:#ffffff;fill-opacity:1;stroke:none;stroke-width:1px;stroke-linecap:butt;stroke-linejoin:miter;stroke-opacity:1"
           d="m 2107.3653,-2946.3724 h 29.8438 l -47.3877,139.398 h -32.2275 l -47.2923,-139.398 h 29.8437 l 26.2206,82.9523 q 2.193,7.3418 4.4813,17.1626 2.3837,9.7254 2.9558,13.5393 1.0488,-8.772 7.1511,-30.7019 z"
           inkscape:connector-curvature="0" /><path
           id="path7718"
           style="font-style:normal;font-variant:normal;font-weight:bold;font-stretch:normal;font-size:medium;line-height:88%;font-family:'Open Sans';-inkscape-font-specification:'Open Sans Bold';letter-spacing:0px;word-spacing:0px;fill:#ffffff;fill-opacity:1;stroke:none;stroke-width:1px;stroke-linecap:butt;stroke-linejoin:miter;stroke-opacity:1"
           d="m 2240.1844,-2806.9744 -10.1068,-33.1809 h -50.8203 l -10.1068,33.1809 h -31.8461 l 49.1994,-139.9701 h 36.1367 l 49.39,139.9701 z m -17.1626,-57.9712 q -14.016,-45.0994 -15.8276,-51.011 -1.7163,-5.9115 -2.4791,-9.344 -3.1464,12.2045 -18.0207,60.355 z"
           inkscape:connector-curvature="0" /></g><g
         id="g7764"
         style="fill:#ffffff;fill-opacity:1"><path
           d="m 1914.8587,-2673.8464 q 0,18.8788 -13.6347,29.7484 -13.5393,10.8697 -37.7576,10.8697 -22.3113,0 -39.4738,-8.3906 v -27.4601 q 14.1114,6.2929 23.8368,8.8673 9.8208,2.5744 17.9254,2.5744 9.7254,0 14.8742,-3.7186 5.2441,-3.7185 5.2441,-11.0603 0,-4.0999 -2.2883,-7.2464 -2.2884,-3.2418 -6.7697,-6.1976 -4.386,-2.9557 -18.0207,-9.4394 -12.7766,-6.0069 -19.1648,-11.537 -6.3883,-5.5302 -10.2022,-12.8719 -3.8139,-7.3418 -3.8139,-17.1626 0,-18.4974 12.4905,-29.081 12.5859,-10.5835 34.7065,-10.5835 10.8696,0 20.6904,2.5744 9.9161,2.5743 20.6904,7.2464 l -9.5347,22.9787 q -11.1557,-4.5767 -18.4975,-6.3883 -7.2464,-1.8116 -14.3021,-1.8116 -8.3906,0 -12.8719,3.9093 -4.4813,3.9092 -4.4813,10.2022 0,3.9092 1.8116,6.865 1.8116,2.8604 5.7208,5.6255 4.0046,2.6697 18.7835,9.7254 19.5462,9.3441 26.7926,18.7835 7.2464,9.344 7.2464,22.9787 z"
           style="font-style:normal;font-variant:normal;font-weight:bold;font-stretch:normal;font-size:medium;line-height:88%;font-family:'Open Sans';-inkscape-font-specification:'Open Sans Bold';letter-spacing:0px;word-spacing:0px;fill:#ffffff;fill-opacity:1;stroke:none;stroke-width:1px;stroke-linecap:butt;stroke-linejoin:miter;stroke-opacity:1"
           id="path7698"
           inkscape:connector-curvature="0" /><path
           d="m 1993.9018,-2635.1353 h -29.5577 v -114.7984 h -37.853 v -24.5996 h 105.2637 v 24.5996 h -37.853 z"
           style="font-style:normal;font-variant:normal;font-weight:bold;font-stretch:normal;font-size:medium;line-height:88%;font-family:'Open Sans';-inkscape-font-specification:'Open Sans Bold';letter-spacing:0px;word-spacing:0px;fill:#ffffff;fill-opacity:1;stroke:none;stroke-width:1px;stroke-linecap:butt;stroke-linejoin:miter;stroke-opacity:1"
           id="path7700"
           inkscape:connector-curvature="0" /><path
           d="m 2166.8622,-2774.5333 v 90.1987 q 0,15.4463 -6.9604,27.0787 -6.865,11.6324 -19.9276,17.83 -13.0626,6.1976 -30.8926,6.1976 -26.888,0 -41.7622,-13.7301 -14.8742,-13.8254 -14.8742,-37.7576 v -89.8173 h 29.4623 v 85.336 q 0,16.1137 6.4837,23.6462 6.4836,7.5324 21.4532,7.5324 14.4928,0 20.9764,-7.5324 6.579,-7.6278 6.579,-23.8369 v -85.1453 z"
           style="font-style:normal;font-variant:normal;font-weight:bold;font-stretch:normal;font-size:medium;line-height:88%;font-family:'Open Sans';-inkscape-font-specification:'Open Sans Bold';letter-spacing:0px;word-spacing:0px;fill:#ffffff;fill-opacity:1;stroke:none;stroke-width:1px;stroke-linecap:butt;stroke-linejoin:miter;stroke-opacity:1"
           id="path7702"
           inkscape:connector-curvature="0" /><path
           d="m 2316.6531,-2706.1692 q 0,34.4205 -19.6416,52.7272 -19.5463,18.3067 -56.5411,18.3067 h -39.4739 v -139.398 h 43.7645 q 34.1344,0 53.0133,18.0206 18.8788,18.0207 18.8788,50.3435 z m -30.7019,0.7628 q 0,-44.9087 -39.6646,-44.9087 h -15.7323 v 90.7708 h 12.6812 q 42.7157,0 42.7157,-45.8621 z"
           style="font-style:normal;font-variant:normal;font-weight:bold;font-stretch:normal;font-size:medium;line-height:88%;font-family:'Open Sans';-inkscape-font-specification:'Open Sans Bold';letter-spacing:0px;word-spacing:0px;fill:#ffffff;fill-opacity:1;stroke:none;stroke-width:1px;stroke-linecap:butt;stroke-linejoin:miter;stroke-opacity:1"
           id="path7704"
           inkscape:connector-curvature="0" /><path
           d="m 2345.5433,-2635.1353 v -139.398 h 29.5578 v 139.398 z"
           style="font-style:normal;font-variant:normal;font-weight:bold;font-stretch:normal;font-size:medium;line-height:88%;font-family:'Open Sans';-inkscape-font-specification:'Open Sans Bold';letter-spacing:0px;word-spacing:0px;fill:#ffffff;fill-opacity:1;stroke:none;stroke-width:1px;stroke-linecap:butt;stroke-linejoin:miter;stroke-opacity:1"
           id="path7706"
           inkscape:connector-curvature="0" /><path
           d="m 2536.9058,-2705.025 q 0,34.6111 -17.1626,53.2039 -17.1625,18.5928 -49.1993,18.5928 -32.0368,0 -49.1993,-18.5928 -17.1626,-18.5928 -17.1626,-53.3946 0,-34.8018 17.1626,-53.1086 17.2579,-18.402 49.39,-18.402 32.1321,0 49.104,18.4974 17.0672,18.4974 17.0672,53.2039 z m -101.7358,0 q 0,23.3601 8.8673,35.1832 8.8673,11.8231 26.5066,11.8231 35.3739,0 35.3739,-47.0063 0,-47.1017 -35.1832,-47.1017 -17.6393,0 -26.602,11.9185 -8.9626,11.8231 -8.9626,35.1832 z"
           style="font-style:normal;font-variant:normal;font-weight:bold;font-stretch:normal;font-size:medium;line-height:88%;font-family:'Open Sans';-inkscape-font-specification:'Open Sans Bold';letter-spacing:0px;word-spacing:0px;fill:#ffffff;fill-opacity:1;stroke:none;stroke-width:1px;stroke-linecap:butt;stroke-linejoin:miter;stroke-opacity:1"
           id="path7708"
           inkscape:connector-curvature="0" /><path
           id="path7720"
           style="font-style:normal;font-variant:normal;font-weight:bold;font-stretch:normal;font-size:medium;line-height:88%;font-family:'Open Sans';-inkscape-font-specification:'Open Sans Bold';letter-spacing:0px;word-spacing:0px;fill:#ffffff;fill-opacity:1;stroke:none;stroke-width:1px;stroke-linecap:butt;stroke-linejoin:miter;stroke-opacity:1"
           d="m 1914.8587,-2673.8464 q 0,18.8788 -13.6347,29.7484 -13.5393,10.8697 -37.7576,10.8697 -22.3113,0 -39.4738,-8.3906 v -27.4601 q 14.1114,6.2929 23.8368,8.8673 9.8208,2.5744 17.9254,2.5744 9.7254,0 14.8742,-3.7186 5.2441,-3.7185 5.2441,-11.0603 0,-4.0999 -2.2883,-7.2464 -2.2884,-3.2418 -6.7697,-6.1976 -4.386,-2.9557 -18.0207,-9.4394 -12.7766,-6.0069 -19.1648,-11.537 -6.3883,-5.5302 -10.2022,-12.8719 -3.8139,-7.3418 -3.8139,-17.1626 0,-18.4974 12.4905,-29.081 12.5859,-10.5835 34.7065,-10.5835 10.8696,0 20.6904,2.5744 9.9161,2.5743 20.6904,7.2464 l -9.5347,22.9787 q -11.1557,-4.5767 -18.4975,-6.3883 -7.2464,-1.8116 -14.3021,-1.8116 -8.3906,0 -12.8719,3.9093 -4.4813,3.9092 -4.4813,10.2022 0,3.9092 1.8116,6.865 1.8116,2.8604 5.7208,5.6255 4.0046,2.6697 18.7835,9.7254 19.5462,9.3441 26.7926,18.7835 7.2464,9.344 7.2464,22.9787 z"
           inkscape:connector-curvature="0" /><path
           id="path7722"
           style="font-style:normal;font-variant:normal;font-weight:bold;font-stretch:normal;font-size:medium;line-height:88%;font-family:'Open Sans';-inkscape-font-specification:'Open Sans Bold';letter-spacing:0px;word-spacing:0px;fill:#ffffff;fill-opacity:1;stroke:none;stroke-width:1px;stroke-linecap:butt;stroke-linejoin:miter;stroke-opacity:1"
           d="m 1993.9018,-2635.1353 h -29.5577 v -114.7984 h -37.853 v -24.5996 h 105.2637 v 24.5996 h -37.853 z"
           inkscape:connector-curvature="0" /><path
           id="path7724"
           style="font-style:normal;font-variant:normal;font-weight:bold;font-stretch:normal;font-size:medium;line-height:88%;font-family:'Open Sans';-inkscape-font-specification:'Open Sans Bold';letter-spacing:0px;word-spacing:0px;fill:#ffffff;fill-opacity:1;stroke:none;stroke-width:1px;stroke-linecap:butt;stroke-linejoin:miter;stroke-opacity:1"
           d="m 2166.8622,-2774.5333 v 90.1987 q 0,15.4463 -6.9604,27.0787 -6.865,11.6324 -19.9276,17.83 -13.0626,6.1976 -30.8926,6.1976 -26.888,0 -41.7622,-13.7301 -14.8742,-13.8254 -14.8742,-37.7576 v -89.8173 h 29.4623 v 85.336 q 0,16.1137 6.4837,23.6462 6.4836,7.5324 21.4532,7.5324 14.4928,0 20.9764,-7.5324 6.579,-7.6278 6.579,-23.8369 v -85.1453 z"
           inkscape:connector-curvature="0" /><path
           id="path7726"
           style="font-style:normal;font-variant:normal;font-weight:bold;font-stretch:normal;font-size:medium;line-height:88%;font-family:'Open Sans';-inkscape-font-specification:'Open Sans Bold';letter-spacing:0px;word-spacing:0px;fill:#ffffff;fill-opacity:1;stroke:none;stroke-width:1px;stroke-linecap:butt;stroke-linejoin:miter;stroke-opacity:1"
           d="m 2316.6531,-2706.1692 q 0,34.4205 -19.6416,52.7272 -19.5463,18.3067 -56.5411,18.3067 h -39.4739 v -139.398 h 43.7645 q 34.1344,0 53.0133,18.0206 18.8788,18.0207 18.8788,50.3435 z m -30.7019,0.7628 q 0,-44.9087 -39.6646,-44.9087 h -15.7323 v 90.7708 h 12.6812 q 42.7157,0 42.7157,-45.8621 z"
           inkscape:connector-curvature="0" /><path
           id="path7728"
           style="font-style:normal;font-variant:normal;font-weight:bold;font-stretch:normal;font-size:medium;line-height:88%;font-family:'Open Sans';-inkscape-font-specification:'Open Sans Bold';letter-spacing:0px;word-spacing:0px;fill:#ffffff;fill-opacity:1;stroke:none;stroke-width:1px;stroke-linecap:butt;stroke-linejoin:miter;stroke-opacity:1"
           d="m 2345.5433,-2635.1353 v -139.398 h 29.5578 v 139.398 z"
           inkscape:connector-curvature="0" /><path
           id="path7730"
           style="font-style:normal;font-variant:normal;font-weight:bold;font-stretch:normal;font-size:medium;line-height:88%;font-family:'Open Sans';-inkscape-font-specification:'Open Sans Bold';letter-spacing:0px;word-spacing:0px;fill:#ffffff;fill-opacity:1;stroke:none;stroke-width:1px;stroke-linecap:butt;stroke-linejoin:miter;stroke-opacity:1"
           d="m 2536.9058,-2705.025 q 0,34.6111 -17.1626,53.2039 -17.1625,18.5928 -49.1993,18.5928 -32.0368,0 -49.1993,-18.5928 -17.1626,-18.5928 -17.1626,-53.3946 0,-34.8018 17.1626,-53.1086 17.2579,-18.402 49.39,-18.402 32.1321,0 49.104,18.4974 17.0672,18.4974 17.0672,53.2039 z m -101.7358,0 q 0,23.3601 8.8673,35.1832 8.8673,11.8231 26.5066,11.8231 35.3739,0 35.3739,-47.0063 0,-47.1017 -35.1832,-47.1017 -17.6393,0 -26.602,11.9185 -8.9626,11.8231 -8.9626,35.1832 z"
           inkscape:connector-curvature="0" /></g></g><text
       xml:space="preserve"
       style="font-style:normal;font-variant:normal;font-weight:bold;font-stretch:normal;font-size:23.2826px;font-family:'Mukti Narrow';-inkscape-font-specification:'Mukti Narrow, Bold';font-variant-ligatures:normal;font-variant-caps:normal;font-variant-numeric:normal;font-variant-east-asian:normal;text-align:center;text-anchor:middle;fill:#00ffff;fill-opacity:1;stroke-width:2.62342"
       x="322.48517"
       y="190.86018"
       id="text2265"><tspan
         sodipodi:role="line"
         id="tspan2263"
         x="322.48517"
         y="190.86018"
         style="text-align:start;text-anchor:start;fill:#00ffff;fill-opacity:1;stroke-width:2.62342">org</tspan><tspan
         sodipodi:role="line"
         x="322.48517"
         y="219.96344"
         id="tspan2267"
         style="text-align:start;text-anchor:start;fill:#00ffff;fill-opacity:1;stroke-width:2.62342">magem</tspan><tspan
         sodipodi:role="line"
         x="322.48517"
         y="249.06668"
         id="tspan2269"
         style="text-align:start;text-anchor:start;fill:#00ffff;fill-opacity:1;stroke-width:2.62342">ideo</tspan><tspan
         sodipodi:role="line"
         x="322.48517"
         y="278.16992"
         id="tspan2271"
         style="text-align:start;text-anchor:start;fill:#00ffff;fill-opacity:1;stroke-width:2.62342">udio</tspan><tspan
         sodipodi:role="line"
         x="322.48517"
         y="307.27319"
         id="tspan2273"
         style="text-align:start;text-anchor:start;fill:#00ffff;fill-opacity:1;stroke-width:2.62342" /></text><text
       xml:space="preserve"
       style="font-style:normal;font-variant:normal;font-weight:bold;font-stretch:normal;font-size:23.2826px;font-family:'Mukti Narrow';-inkscape-font-specification:'Mukti Narrow, Bold';font-variant-ligatures:normal;font-variant-caps:normal;font-variant-numeric:normal;font-variant-east-asian:normal;text-align:center;text-anchor:middle;fill:#ffffff;fill-opacity:1;stroke-width:2.62342"
       x="310.03329"
       y="191.3945"
       id="text2297"><tspan
         sodipodi:role="line"
         x="310.03329"
         y="191.3945"
         id="tspan2295"
         style="text-align:center;text-anchor:middle;fill:#ffffff;fill-opacity:1;stroke-width:2.62342">X</tspan><tspan
         sodipodi:role="line"
         x="310.03329"
         y="220.49776"
         style="text-align:center;text-anchor:middle;fill:#ffffff;fill-opacity:1;stroke-width:2.62342"
         id="tspan2313">I</tspan><tspan
         sodipodi:role="line"
         x="310.03329"
         y="249.601"
         style="text-align:center;text-anchor:middle;fill:#ffffff;fill-opacity:1;stroke-width:2.62342"
         id="tspan2315">V</tspan><tspan
         sodipodi:role="line"
         x="310.03329"
         y="278.70425"
         style="text-align:center;text-anchor:middle;fill:#ffffff;fill-opacity:1;stroke-width:2.62342"
         id="tspan2317">A</tspan></text><text
       xml:space="preserve"
       style="font-style:normal;font-weight:normal;font-size:17.5501px;line-height:1.35;font-family:sans-serif;text-align:start;letter-spacing:-0.62px;text-anchor:start;fill:#000000;fill-opacity:1;stroke:none;stroke-width:0.438752"
       x="38.429024"
       y="451.72031"
       id="text6465-9"><tspan
         sodipodi:role="line"
         x="38.429024"
         y="451.72031"
         style="font-style:normal;font-variant:normal;font-weight:bold;font-stretch:normal;font-family:Mulish;-inkscape-font-specification:'Mulish Bold';text-align:start;text-anchor:start;fill:#00ffff;stroke-width:0.438752"
         id="tspan446-7"><tspan
           dy="0 0 0 0 0 0 0 0 0 0 0 0 0 0 0 0 0 0 0 0 0"
           id="tspan603"
           style="font-style:normal;font-variant:normal;font-weight:bold;font-stretch:normal;font-family:Mulish;-inkscape-font-specification:'Mulish Bold';text-align:start;text-anchor:start;fill:#00ffff;stroke-width:0.438752"><tspan
   style="fill:#ffffff"
   id="tspan605">Obrigado por escolher</tspan> XIVAStudio<tspan
   style="fill:#ffffff"
   id="tspan709">!</tspan></tspan></tspan></text></g></svg>
