<?xml version="1.0" encoding="UTF-8" standalone="no"?>
<svg
   id="Layer_1"
   data-name="Layer 1"
   viewBox="0 0 269.23 247.64"
   version="1.1"
   sodipodi:docname="icon-big-hd-install.svg"
   inkscape:version="1.2.1 (9c6d41e410, 2022-07-14)"
   xmlns:inkscape="http://www.inkscape.org/namespaces/inkscape"
   xmlns:sodipodi="http://sodipodi.sourceforge.net/DTD/sodipodi-0.dtd"
   xmlns:xlink="http://www.w3.org/1999/xlink"
   xmlns="http://www.w3.org/2000/svg"
   xmlns:svg="http://www.w3.org/2000/svg">
  <sodipodi:namedview
     id="namedview43580"
     pagecolor="#ffffff"
     bordercolor="#000000"
     borderopacity="0.25"
     inkscape:showpageshadow="2"
     inkscape:pageopacity="0.0"
     inkscape:pagecheckerboard="0"
     inkscape:deskcolor="#d1d1d1"
     showgrid="false"
     inkscape:zoom="0.37403085"
     inkscape:cx="223.24362"
     inkscape:cy="327.51309"
     inkscape:window-width="2560"
     inkscape:window-height="1010"
     inkscape:window-x="1680"
     inkscape:window-y="0"
     inkscape:window-maximized="1"
     inkscape:current-layer="Layer_1" />
  <defs
     id="defs43561">
    <style
       id="style43559">.cls-1{fill:#2b91c9;}.cls-2{fill:#02679a;}.cls-3{fill:#7ac143;}.cls-4{fill:#52b848;}.cls-5{fill:#002b44;}</style>
    <linearGradient
       gradientUnits="userSpaceOnUse"
       y2="25.988701"
       x2="-89.268021"
       y1="39.619446"
       x1="-89.134392"
       id="linearGradient896"
       xlink:href="#linearGradient894" />
    <linearGradient
       id="linearGradient894">
      <stop
         id="stop890"
         offset="0"
         style="stop-color:#000000;stop-opacity:1;" />
      <stop
         id="stop892"
         offset="1"
         style="stop-color:#000000;stop-opacity:0.7965517" />
    </linearGradient>
    <filter
       style="color-interpolation-filters:sRGB"
       id="filter8134"
       x="-0.087588043"
       width="1.1757516"
       y="-0.08765699"
       height="1.1753161">
      <feGaussianBlur
         stdDeviation="19.430786"
         id="feGaussianBlur8136" />
    </filter>
    <linearGradient
       xlink:href="#linearGradient4231"
       id="linearGradient8065"
       x1="-40.386776"
       y1="-3442.9312"
       x2="-51.071693"
       y2="-2356.637"
       gradientUnits="userSpaceOnUse"
       gradientTransform="matrix(0.01655892,0,0,0.01655892,-87.108183,77.968855)" />
    <linearGradient
       id="linearGradient4231">
      <stop
         style="stop-color:#016ed4;stop-opacity:1"
         offset="0"
         id="stop4233" />
      <stop
         style="stop-color:#00b1ff;stop-opacity:1"
         offset="1"
         id="stop4235" />
    </linearGradient>
  </defs>
  <path
     class="cls-1"
     d="M294.34,235.77h0l-.29-.82-.12-.32-27.53-77.8h0a25.31,25.31,0,0,0-23.67-16.58H80.58A25.3,25.3,0,0,0,57,156.5h0l0,.14c-.09.23-.17.46-.25.69L29.68,233.88c-.36.9-.69,1.82-1,2.75h0a37.65,37.65,0,0,0-1.65,11h0a37.89,37.89,0,0,0,37.78,37.79H258.49a37.9,37.9,0,0,0,37.79-37.79h0A37.51,37.51,0,0,0,294.34,235.77Z"
     id="path43563"
     transform="translate(-27.05 -37.81)" />
  <rect
     class="cls-2"
     y="172.07"
     width="269.23"
     height="75.57"
     rx="37.79"
     id="rect43565" />
  <circle
     class="cls-3"
     cx="230.08"
     cy="211.62"
     r="7.14"
     id="circle43567" />
  <polygon
     class="cls-4"
     points="134.62 137.69 199.87 70.33 69.36 70.33 134.62 137.69"
     id="polygon43569" />
  <path
     class="cls-4"
     d="M165.9,179.74l57.18-59,8.08-8.33c3.59-3.71,1-10.25-4.24-10.25H96.41c-5.26,0-7.84,6.54-4.25,10.25l57.18,59,8.08,8.33c5.38,5.56,13.86-2.93,8.48-8.48l-57.18-59-8.07-8.34-4.24,10.24H226.92l-4.25-10.24-57.18,59-8.07,8.34C152,176.81,160.52,185.3,165.9,179.74Z"
     transform="translate(-27.05 -37.81)"
     id="path43571" />
  <rect
     class="cls-4"
     x="110.21"
     width="48.82"
     height="93.17"
     rx="9"
     id="rect43573" />
  <path
     style="fill:#002b44;fill-opacity:1;stroke:none;stroke-width:0.111812"
     d="m 134.61478,176.17667 a 33.678254,33.67825 0 0 0 -33.67808,33.67808 33.678254,33.67825 0 0 0 0.51056,5.8144 c 7.00893,-3.93218 12.48301,-6.90408 13.24174,-7.16626 3.00529,-1.03934 25.67396,-2.55471 26.97543,-1.80341 1.89311,1.09294 0.34513,2.74428 -3.84097,4.09693 -4.52784,1.46287 -5.15014,2.22158 -2.89139,3.5255 3.01827,1.74245 9.75174,1.49121 15.75777,-0.58858 3.69317,-1.27864 6.4937,-1.7421 7.32467,-1.30821 0.27694,0.14471 0.33473,0.38861 0.13428,0.73588 -0.99347,1.72096 -11.72799,6.68715 -17.07855,7.90119 -4.44138,1.00777 -7.36951,0.94078 -14.7125,-0.33959 -4.25872,-0.74268 -6.54398,-0.71597 -7.8278,0.0925 -0.70754,0.44562 -5.51848,3.68684 -11.76583,7.91933 a 33.678254,33.67825 0 0 0 27.85067,14.79892 33.678254,33.67825 0 0 0 33.67854,-33.67853 33.678254,33.67825 0 0 0 -33.67854,-33.67807 z"
     id="circle8394"
     inkscape:connector-curvature="0" />
</svg>
