<?xml version="1.0" encoding="UTF-8" standalone="no"?>
<svg
   id="Layer_1"
   data-name="Layer 1"
   viewBox="0 0 799.99999 300"
   version="1.1"
   sodipodi:docname="xiva-welcome.svg"
   inkscape:version="1.2.1 (9c6d41e410, 2022-07-14)"
   xml:space="preserve"
   width="800"
   height="300"
   inkscape:export-filename="xiva-welcome.png"
   inkscape:export-xdpi="96"
   inkscape:export-ydpi="96"
   xmlns:inkscape="http://www.inkscape.org/namespaces/inkscape"
   xmlns:sodipodi="http://sodipodi.sourceforge.net/DTD/sodipodi-0.dtd"
   xmlns:xlink="http://www.w3.org/1999/xlink"
   xmlns="http://www.w3.org/2000/svg"
   xmlns:svg="http://www.w3.org/2000/svg"><sodipodi:namedview
     id="namedview43580"
     pagecolor="#ffffff"
     bordercolor="#000000"
     borderopacity="0.25"
     inkscape:showpageshadow="2"
     inkscape:pageopacity="0.0"
     inkscape:pagecheckerboard="0"
     inkscape:deskcolor="#d1d1d1"
     showgrid="false"
     inkscape:zoom="1.4961234"
     inkscape:cx="347.56491"
     inkscape:cy="159.74618"
     inkscape:window-width="1224"
     inkscape:window-height="994"
     inkscape:window-x="56"
     inkscape:window-y="30"
     inkscape:window-maximized="1"
     inkscape:current-layer="Layer_1" /><defs
     id="defs43561"><style
       id="style43559">.cls-1{fill:#2b91c9;}.cls-2{fill:#02679a;}.cls-3{fill:#7ac143;}.cls-4{fill:#52b848;}.cls-5{fill:#002b44;}</style><linearGradient
       gradientUnits="userSpaceOnUse"
       y2="25.988701"
       x2="-89.268021"
       y1="39.619446"
       x1="-89.134392"
       id="linearGradient896"
       xlink:href="#linearGradient894" /><linearGradient
       id="linearGradient894"><stop
         id="stop890"
         offset="0"
         style="stop-color:#000000;stop-opacity:1;" /><stop
         id="stop892"
         offset="1"
         style="stop-color:#000000;stop-opacity:0.7965517" /></linearGradient><filter
       style="color-interpolation-filters:sRGB"
       id="filter8134"
       x="-0.087588042"
       width="1.1757516"
       y="-0.08765699"
       height="1.1753161"><feGaussianBlur
         stdDeviation="19.430786"
         id="feGaussianBlur8136" /></filter><linearGradient
       xlink:href="#linearGradient4231"
       id="linearGradient8065"
       x1="-40.386776"
       y1="-3442.9312"
       x2="-51.071693"
       y2="-2356.637"
       gradientUnits="userSpaceOnUse"
       gradientTransform="matrix(0.01655892,0,0,0.01655892,-87.108183,77.968855)" /><linearGradient
       id="linearGradient4231"><stop
         style="stop-color:#016ed4;stop-opacity:1"
         offset="0"
         id="stop4233" /><stop
         style="stop-color:#00b1ff;stop-opacity:1"
         offset="1"
         id="stop4235" /></linearGradient><linearGradient
       inkscape:collect="always"
       xlink:href="#linearGradient894"
       id="linearGradient4757"
       gradientUnits="userSpaceOnUse"
       x1="-89.134392"
       y1="39.619446"
       x2="-89.268021"
       y2="25.988701" /><filter
       inkscape:collect="always"
       style="color-interpolation-filters:sRGB"
       id="filter8134-5"
       x="-0.087588043"
       width="1.1757516"
       y="-0.08765699"
       height="1.1753161"><feGaussianBlur
         inkscape:collect="always"
         stdDeviation="19.430786"
         id="feGaussianBlur8136-9" /></filter><linearGradient
       inkscape:collect="always"
       xlink:href="#linearGradient4231"
       id="linearGradient4759"
       gradientUnits="userSpaceOnUse"
       gradientTransform="matrix(0.01655892,0,0,0.01655892,-87.108183,77.968855)"
       x1="-40.386776"
       y1="-3442.9312"
       x2="-51.071693"
       y2="-2356.637" /></defs><g
     id="g6556"><path
       class="cls-1"
       d="m 478.04339,267.6121 v 0 l -0.17057,-0.48232 -0.0706,-0.18821 -16.19276,-45.76084 v 0 a 14.886978,14.886978 0 0 0 -13.92234,-9.75212 h -95.3743 a 14.881095,14.881095 0 0 0 -13.86941,9.55802 v 0 0.0823 c -0.0529,0.13528 -0.1,0.27056 -0.14704,0.40584 l -15.9222,45.02561 c -0.21173,0.52937 -0.40584,1.0705 -0.58817,1.61751 v 0 a 22.145186,22.145186 0 0 0 -0.97052,6.47003 v 0 a 22.286352,22.286352 0 0 0 22.22166,22.22754 h 113.91975 a 22.292233,22.292233 0 0 0 22.22753,-22.22754 v 0 a 22.06284,22.06284 0 0 0 -1.14108,-6.97587 z"
       id="path43563"
       style="stroke-width:0.588185;fill:#00a4f7;fill-opacity:1" /><rect
       class="cls-2"
       y="252.38399"
       width="158.35721"
       height="44.449184"
       rx="22.227533"
       id="rect43565"
       x="320.8273"
       style="stroke-width:0.588185;fill:#0179db;fill-opacity:1" /><circle
       class="cls-3"
       cx="456.15701"
       cy="275.64673"
       r="4.199645"
       id="circle43567"
       style="stroke-width:0.588185" /><polygon
       class="cls-4"
       points="199.87,70.33 69.36,70.33 134.62,137.69 "
       id="polygon43569"
       transform="matrix(0.58818557,0,0,0.58818557,320.82727,151.17488)" /><path
       class="cls-4"
       d="m 402.49684,234.65607 33.63244,-34.70295 4.75254,-4.89958 c 2.1116,-2.18218 0.5882,-6.02892 -2.4939,-6.02892 h -76.7641 c -3.09386,0 -4.61137,3.84674 -2.49979,6.02892 l 33.63246,34.70295 4.75253,4.89958 c 3.16444,3.2703 8.15226,-1.72339 4.98782,-4.98782 l -33.63246,-34.70295 -4.74665,-4.90547 -2.49391,6.02302 h 76.7641 l -2.49978,-6.02302 -33.63245,34.70295 -4.74667,4.90547 c -3.18797,3.26443 1.82337,8.25812 4.98782,4.98782 z"
       id="path43571"
       style="stroke-width:0.588185" /><rect
       class="cls-4"
       x="385.65118"
       width="28.715219"
       height="54.80125"
       rx="5.2936697"
       id="rect43573"
       y="151.17488"
       style="stroke-width:0.588185" /><path
       style="fill:#002b44;fill-opacity:1;stroke:none;stroke-width:0.0657661"
       d="m 400.00574,254.79946 a 19.809063,19.809061 0 0 0 -19.80896,19.80896 19.809063,19.809061 0 0 0 0.3003,3.41995 c 4.12256,-2.31285 7.34233,-4.06088 7.78861,-4.21509 1.76767,-0.61133 15.10104,-1.50265 15.86656,-1.06074 1.11348,0.64285 0.203,1.61415 -2.25921,2.40975 -2.66321,0.86045 -3.02924,1.3067 -1.70067,2.07365 1.77531,1.02489 5.73583,0.87711 9.26848,-0.34619 2.17227,-0.75207 3.81951,-1.02468 4.30828,-0.76947 0.16289,0.0851 0.19688,0.22857 0.079,0.43283 -0.58435,1.01224 -6.89824,3.93328 -10.04537,4.64736 -2.61235,0.59275 -4.33464,0.55336 -8.65368,-0.19974 -2.50491,-0.43682 -3.84906,-0.42112 -4.60419,0.0544 -0.41616,0.2621 -3.24589,2.16855 -6.9205,4.65803 a 19.809063,19.809061 0 0 0 16.38137,8.70451 19.809063,19.809061 0 0 0 19.80923,-19.80923 19.809063,19.809061 0 0 0 -19.80923,-19.80894 z"
       id="circle8394"
       inkscape:connector-curvature="0" /><rect
       class="cls-14"
       x="-57.995052"
       y="184.87495"
       width="33.35257"
       height="40.302662"
       transform="rotate(-90)"
       id="rect54613"
       style="fill:#cbcbca;stroke-width:0.328144" /><rect
       class="cls-15"
       x="-40.849522"
       y="191.03751"
       width="7.6818538"
       height="7.6818538"
       rx="0.9844324"
       transform="rotate(-90)"
       id="rect54615"
       style="fill:#616363;stroke-width:0.328144" /><rect
       class="cls-15"
       x="-40.849514"
       y="211.32994"
       width="7.6818538"
       height="7.6818538"
       rx="0.9844324"
       transform="rotate(-90)"
       id="rect54617"
       style="fill:#616363;stroke-width:0.328144" /><rect
       class="cls-16"
       x="-57.998322"
       y="181.86588"
       width="8.4365854"
       height="46.320827"
       transform="rotate(-90)"
       id="rect54619"
       style="fill:#333333;stroke-width:0.328144" /><path
       class="cls-2"
       d="m 179.20135,57.771908 v 40.473295 a 21.618135,21.618135 0 0 0 21.55579,21.552517 h 8.53174 A 21.614854,21.614854 0 0 0 230.84139,98.245203 V 57.771908 Z"
       id="path54621"
       style="fill:#016fd5;stroke-width:0.328144;fill-opacity:1" /><path
       class="cls-6"
       d="m 214.12573,76.485968 h -4.62355 v 4.623551 h 1.41102 v 4.177275 l -5.02061,5.020612 V 74.48757 h 2.42827 l -3.32738,-5.762211 -3.32738,5.762211 h 2.42826 v 21.253901 l -4.62683,-4.626839 v -4.229776 a 2.6415602,2.6415602 0 1 0 -1.79822,0 v 4.974663 l 1.15834,1.158353 v 0 l 5.26999,5.269995 v 2.224813 a 4.2100891,4.2100891 0 1 0 1.79823,0 v -7.658878 l 5.818,-5.795028 v 0 l 1.01396,-1.013967 v -4.922162 h 1.41102 z"
       id="path54623"
       style="fill:#ffffff;stroke-width:0.328144" /><circle
       class="cls-6"
       cx="186.28268"
       cy="63.360207"
       r="1.1091273"
       id="circle54625"
       style="fill:#ffffff;stroke-width:0.328144" /><circle
       class="cls-6"
       cx="195.6545"
       cy="63.360207"
       r="1.1091273"
       id="circle54627"
       style="fill:#ffffff;stroke-width:0.328144" /><circle
       class="cls-6"
       cx="205.02628"
       cy="63.360207"
       r="1.1091273"
       id="circle54629"
       style="fill:#ffffff;stroke-width:0.328144" /><g
       id="g61577"
       transform="translate(17.924768)"><text
         id="text8047"
         y="139.94905"
         x="244.31699"
         style="font-style:normal;font-weight:normal;font-size:1.40266px;line-height:0%;font-family:sans-serif;letter-spacing:9.13916px;word-spacing:0px;fill:#222d32;fill-opacity:1;stroke:none;stroke-width:0.116888px;stroke-linecap:butt;stroke-linejoin:miter;stroke-opacity:1"
         xml:space="preserve"><tspan
           style="font-style:normal;font-variant:normal;font-weight:bold;font-stretch:normal;font-size:20.4902px;line-height:0%;font-family:'Open Sans';-inkscape-font-specification:'Open Sans Bold';letter-spacing:9.13916px;fill:#222d32;fill-opacity:1;stroke-width:0.116888px"
           y="139.94905"
           x="244.31699"
           id="tspan8049"
           sodipodi:role="line">www.xivastudio.org</tspan></text><g
         id="g1292"
         transform="matrix(0.26924583,0,0,0.26924583,407.59097,116.36619)"><path
           style="fill:#00bcd4;fill-opacity:1;stroke:none;stroke-width:18.1456;stroke-miterlimit:4;stroke-dasharray:none;stroke-opacity:1"
           d="m -600.5877,-340.57267 246.93273,296.609682 246.92623,-296.609682 h -206.30919 l -40.61924,48.79201 -40.62134,-48.79201 z"
           id="path7484"
           inkscape:connector-curvature="0" /><path
           id="path7482"
           d="M -600.5877,5.6140076 -353.65497,-290.99567 -106.72874,5.6140076 H -313.03793 L -353.65717,-43.178 -394.27851,5.6140076 Z"
           style="fill:#222d32;fill-opacity:1;stroke:none;stroke-width:18.1456;stroke-miterlimit:4;stroke-dasharray:none;stroke-opacity:1"
           inkscape:connector-curvature="0" /><g
           inkscape:export-ydpi="12.847936"
           inkscape:export-xdpi="12.847936"
           inkscape:export-filename="/media/xiva/Arquivos/xiva-studio/identidade-visual-xiva/identidade-2019/xiva.png"
           id="g4755"
           inkscape:label="Camada 1"
           transform="matrix(2.4769844,0,0,2.4769844,-612.89383,-564.41939)"><g
             id="g4753"
             transform="matrix(6.8741371,0,0,6.8741371,709.46169,-53.672915)"><path
               inkscape:connector-curvature="0"
               style="fill:url(#linearGradient4757);fill-opacity:1;stroke:none;stroke-width:0.26428;stroke-miterlimit:4;stroke-dasharray:none;stroke-opacity:1"
               d="m -102.83099,41.702877 14.799736,-17.777087 14.799343,17.777087 h -12.36499 l -2.434485,-2.924315 -2.434611,2.924315 z"
               id="path4745" /><circle
               style="fill:#1a1a1a;fill-opacity:1;stroke:none;stroke-width:0.139348;stroke-miterlimit:4;stroke-dasharray:none;stroke-opacity:1"
               id="circle4747"
               cx="-88.10144"
               cy="29.869637"
               r="5.0562463" /><path
               style="fill:#222d32;fill-opacity:1;stroke:#030405;stroke-width:16.5;stroke-miterlimit:4;stroke-dasharray:none;stroke-opacity:1;filter:url(#filter8134-5)"
               d="m 234.80281,-3592.0605 c -3.7135,0.037 -6.9628,0.2743 -9.6367,0.7461 -28.5216,5.0332 -150.996,23.4882 -176.16211,41.9434 -25.1661,18.4551 -70.46678,48.6542 -77.17774,75.498 -6.71096,26.8438 -5.03319,83.8867 -8.38867,93.9532 -3.35548,10.0664 -8.38867,109.0527 -8.38867,109.0527 l 45.29883,122.4765 55.36718,93.9532 73.82032,60.3984 c 0,0 52.00976,21.8105 60.39846,26.8438 8.3887,5.0332 107.3749,-6.711 127.5078,-6.711 20.1329,0 77.1758,-28.5214 92.2754,-35.2324 15.0997,-6.7109 90.5976,-95.6308 98.9863,-102.3418 8.3887,-6.711 73.8203,-135.8965 73.8203,-135.8965 0,0 -31.8769,-145.9648 -35.2324,-157.709 -3.3555,-11.7441 -73.8203,-114.0859 -73.8203,-114.0859 0,0 -75.498,-48.6544 -100.6641,-52.0098 -22.8068,-3.0409 -102.107,-21.2397 -138.0039,-20.8789 z m 32.5918,41.8614 a 270.82596,270.82593 0 0 1 270.8262,270.8261 270.82596,270.82593 0 0 1 -270.8262,270.8242 270.82596,270.82593 0 0 1 -223.96483,-119.0078 c 50.23801,-34.0353 88.92751,-60.0964 94.61719,-63.6797 10.32394,-6.5008 28.70054,-6.7183 62.94724,-0.746 59.0492,10.2964 82.5948,10.8366 118.3106,2.7324 43.0267,-9.7628 129.3508,-49.6978 137.3398,-63.5371 1.6121,-2.7925 1.1449,-4.7543 -1.082,-5.918 -6.6822,-3.4893 -29.1998,0.2394 -58.8985,10.5215 -48.2979,16.7249 -102.4471,18.7422 -126.7187,4.7305 -18.1638,-10.4856 -13.1592,-16.5839 23.2519,-28.3477 33.6628,-10.8773 46.1103,-24.1563 30.8868,-32.9453 -10.466,-6.0415 -192.75654,6.1422 -216.92386,14.5 -6.10147,2.1086 -50.12369,26.009 -106.48828,57.6308 a 270.82596,270.82593 0 0 1 -4.10352,-46.7578 270.82596,270.82593 0 0 1 270.82616,-270.8261 z"
               id="path4749"
               inkscape:connector-curvature="0"
               transform="matrix(0.01655892,0,0,0.01655892,-92.331116,84.080798)" /><path
               inkscape:connector-curvature="0"
               style="fill:url(#linearGradient4759);fill-opacity:1;stroke:none;stroke-width:0.26428;stroke-miterlimit:4;stroke-dasharray:none;stroke-opacity:1"
               d="m -102.83099,20.954423 14.799729,17.777104 14.799345,-17.777104 h -12.364988 l -2.434487,2.924331 -2.434613,-2.924331 z m 14.817614,4.21334 a 4.4845867,4.4845864 0 0 1 4.484591,4.484592 4.4845867,4.4845864 0 0 1 -4.484591,4.484557 4.4845867,4.4845864 0 0 1 -3.708616,-1.970643 c 0.831887,-0.563587 1.472544,-0.995129 1.566759,-1.054466 0.170953,-0.107646 0.47525,-0.111249 1.042338,-0.01235 0.977791,0.170496 1.367681,0.179442 1.959097,0.04525 0.712476,-0.161661 2.14191,-0.822943 2.274198,-1.052105 0.0267,-0.04624 0.01896,-0.07872 -0.01792,-0.098 -0.110649,-0.05778 -0.483517,0.004 -0.975295,0.174223 -0.799761,0.276948 -1.696413,0.310355 -2.098326,0.07833 -0.300772,-0.173629 -0.217901,-0.274609 0.385027,-0.469404 0.55742,-0.180116 0.763538,-0.400004 0.511453,-0.545541 -0.173306,-0.10004 -3.191842,0.101708 -3.592027,0.240104 -0.101034,0.03492 -0.829994,0.430683 -1.763331,0.954306 a 4.4845867,4.4845864 0 0 1 -0.06795,-0.774258 4.4845867,4.4845864 0 0 1 4.484589,-4.484592 z"
               id="path4751" /></g></g><g
           inkscape:export-ydpi="12.847936"
           inkscape:export-xdpi="12.847936"
           inkscape:export-filename="/media/xiva/Arquivos/xiva-studio/identidade-visual-xiva/identidade-2019/xiva.png"
           transform="matrix(1.0997315,0,0,1.0997315,-2065.4471,2901.2771)"
           id="g7778"><g
             id="g7754"
             style="fill:#222d32;fill-opacity:1"><path
               d="m 1945.2746,-2806.9744 h -33.753 l -32.4182,-52.7271 -32.4181,52.7271 h -31.6554 l 46.2435,-71.892 -43.2877,-67.506 h 32.6088 l 30.0345,50.1528 29.4624,-50.1528 h 31.846 l -43.7645,69.1269 z"
               style="font-style:normal;font-variant:normal;font-weight:bold;font-stretch:normal;font-size:medium;line-height:88%;font-family:'Open Sans';-inkscape-font-specification:'Open Sans Bold';letter-spacing:0px;word-spacing:0px;fill:#222d32;fill-opacity:1;stroke:none;stroke-width:1px;stroke-linecap:butt;stroke-linejoin:miter;stroke-opacity:1"
               id="path7690"
               inkscape:connector-curvature="0" /><path
               d="m 1963.0092,-2806.9744 v -139.398 h 29.5577 v 139.398 z"
               style="font-style:normal;font-variant:normal;font-weight:bold;font-stretch:normal;font-size:medium;line-height:88%;font-family:'Open Sans';-inkscape-font-specification:'Open Sans Bold';letter-spacing:0px;word-spacing:0px;fill:#222d32;fill-opacity:1;stroke:none;stroke-width:1px;stroke-linecap:butt;stroke-linejoin:miter;stroke-opacity:1"
               id="path7692"
               inkscape:connector-curvature="0" /><path
               d="m 2107.3653,-2946.3724 h 29.8438 l -47.3877,139.398 h -32.2275 l -47.2923,-139.398 h 29.8437 l 26.2206,82.9523 q 2.193,7.3418 4.4813,17.1626 2.3837,9.7254 2.9558,13.5393 1.0488,-8.772 7.1511,-30.7019 z"
               style="font-style:normal;font-variant:normal;font-weight:bold;font-stretch:normal;font-size:medium;line-height:88%;font-family:'Open Sans';-inkscape-font-specification:'Open Sans Bold';letter-spacing:0px;word-spacing:0px;fill:#222d32;fill-opacity:1;stroke:none;stroke-width:1px;stroke-linecap:butt;stroke-linejoin:miter;stroke-opacity:1"
               id="path7694"
               inkscape:connector-curvature="0" /><path
               d="m 2240.1844,-2806.9744 -10.1068,-33.1809 h -50.8203 l -10.1068,33.1809 h -31.8461 l 49.1994,-139.9701 h 36.1367 l 49.39,139.9701 z m -17.1626,-57.9712 q -14.016,-45.0994 -15.8276,-51.011 -1.7163,-5.9115 -2.4791,-9.344 -3.1464,12.2045 -18.0207,60.355 z"
               style="font-style:normal;font-variant:normal;font-weight:bold;font-stretch:normal;font-size:medium;line-height:88%;font-family:'Open Sans';-inkscape-font-specification:'Open Sans Bold';letter-spacing:0px;word-spacing:0px;fill:#222d32;fill-opacity:1;stroke:none;stroke-width:1px;stroke-linecap:butt;stroke-linejoin:miter;stroke-opacity:1"
               id="path7696"
               inkscape:connector-curvature="0" /><path
               id="path7712"
               style="font-style:normal;font-variant:normal;font-weight:bold;font-stretch:normal;font-size:medium;line-height:88%;font-family:'Open Sans';-inkscape-font-specification:'Open Sans Bold';letter-spacing:0px;word-spacing:0px;fill:#222d32;fill-opacity:1;stroke:none;stroke-width:1px;stroke-linecap:butt;stroke-linejoin:miter;stroke-opacity:1"
               d="m 1945.2746,-2806.9744 h -33.753 l -32.4182,-52.7271 -32.4181,52.7271 h -31.6554 l 46.2435,-71.892 -43.2877,-67.506 h 32.6088 l 30.0345,50.1528 29.4624,-50.1528 h 31.846 l -43.7645,69.1269 z"
               inkscape:connector-curvature="0" /><path
               id="path7714"
               style="font-style:normal;font-variant:normal;font-weight:bold;font-stretch:normal;font-size:medium;line-height:88%;font-family:'Open Sans';-inkscape-font-specification:'Open Sans Bold';letter-spacing:0px;word-spacing:0px;fill:#222d32;fill-opacity:1;stroke:none;stroke-width:1px;stroke-linecap:butt;stroke-linejoin:miter;stroke-opacity:1"
               d="m 1963.0092,-2806.9744 v -139.398 h 29.5577 v 139.398 z"
               inkscape:connector-curvature="0" /><path
               id="path7716"
               style="font-style:normal;font-variant:normal;font-weight:bold;font-stretch:normal;font-size:medium;line-height:88%;font-family:'Open Sans';-inkscape-font-specification:'Open Sans Bold';letter-spacing:0px;word-spacing:0px;fill:#222d32;fill-opacity:1;stroke:none;stroke-width:1px;stroke-linecap:butt;stroke-linejoin:miter;stroke-opacity:1"
               d="m 2107.3653,-2946.3724 h 29.8438 l -47.3877,139.398 h -32.2275 l -47.2923,-139.398 h 29.8437 l 26.2206,82.9523 q 2.193,7.3418 4.4813,17.1626 2.3837,9.7254 2.9558,13.5393 1.0488,-8.772 7.1511,-30.7019 z"
               inkscape:connector-curvature="0" /><path
               id="path7718"
               style="font-style:normal;font-variant:normal;font-weight:bold;font-stretch:normal;font-size:medium;line-height:88%;font-family:'Open Sans';-inkscape-font-specification:'Open Sans Bold';letter-spacing:0px;word-spacing:0px;fill:#222d32;fill-opacity:1;stroke:none;stroke-width:1px;stroke-linecap:butt;stroke-linejoin:miter;stroke-opacity:1"
               d="m 2240.1844,-2806.9744 -10.1068,-33.1809 h -50.8203 l -10.1068,33.1809 h -31.8461 l 49.1994,-139.9701 h 36.1367 l 49.39,139.9701 z m -17.1626,-57.9712 q -14.016,-45.0994 -15.8276,-51.011 -1.7163,-5.9115 -2.4791,-9.344 -3.1464,12.2045 -18.0207,60.355 z"
               inkscape:connector-curvature="0" /></g><g
             id="g7764"
             style="fill:#222d32;fill-opacity:1"><path
               d="m 1914.8587,-2673.8464 q 0,18.8788 -13.6347,29.7484 -13.5393,10.8697 -37.7576,10.8697 -22.3113,0 -39.4738,-8.3906 v -27.4601 q 14.1114,6.2929 23.8368,8.8673 9.8208,2.5744 17.9254,2.5744 9.7254,0 14.8742,-3.7186 5.2441,-3.7185 5.2441,-11.0603 0,-4.0999 -2.2883,-7.2464 -2.2884,-3.2418 -6.7697,-6.1976 -4.386,-2.9557 -18.0207,-9.4394 -12.7766,-6.0069 -19.1648,-11.537 -6.3883,-5.5302 -10.2022,-12.8719 -3.8139,-7.3418 -3.8139,-17.1626 0,-18.4974 12.4905,-29.081 12.5859,-10.5835 34.7065,-10.5835 10.8696,0 20.6904,2.5744 9.9161,2.5743 20.6904,7.2464 l -9.5347,22.9787 q -11.1557,-4.5767 -18.4975,-6.3883 -7.2464,-1.8116 -14.3021,-1.8116 -8.3906,0 -12.8719,3.9093 -4.4813,3.9092 -4.4813,10.2022 0,3.9092 1.8116,6.865 1.8116,2.8604 5.7208,5.6255 4.0046,2.6697 18.7835,9.7254 19.5462,9.3441 26.7926,18.7835 7.2464,9.344 7.2464,22.9787 z"
               style="font-style:normal;font-variant:normal;font-weight:bold;font-stretch:normal;font-size:medium;line-height:88%;font-family:'Open Sans';-inkscape-font-specification:'Open Sans Bold';letter-spacing:0px;word-spacing:0px;fill:#222d32;fill-opacity:1;stroke:none;stroke-width:1px;stroke-linecap:butt;stroke-linejoin:miter;stroke-opacity:1"
               id="path7698"
               inkscape:connector-curvature="0" /><path
               d="m 1993.9018,-2635.1353 h -29.5577 v -114.7984 h -37.853 v -24.5996 h 105.2637 v 24.5996 h -37.853 z"
               style="font-style:normal;font-variant:normal;font-weight:bold;font-stretch:normal;font-size:medium;line-height:88%;font-family:'Open Sans';-inkscape-font-specification:'Open Sans Bold';letter-spacing:0px;word-spacing:0px;fill:#222d32;fill-opacity:1;stroke:none;stroke-width:1px;stroke-linecap:butt;stroke-linejoin:miter;stroke-opacity:1"
               id="path7700"
               inkscape:connector-curvature="0" /><path
               d="m 2166.8622,-2774.5333 v 90.1987 q 0,15.4463 -6.9604,27.0787 -6.865,11.6324 -19.9276,17.83 -13.0626,6.1976 -30.8926,6.1976 -26.888,0 -41.7622,-13.7301 -14.8742,-13.8254 -14.8742,-37.7576 v -89.8173 h 29.4623 v 85.336 q 0,16.1137 6.4837,23.6462 6.4836,7.5324 21.4532,7.5324 14.4928,0 20.9764,-7.5324 6.579,-7.6278 6.579,-23.8369 v -85.1453 z"
               style="font-style:normal;font-variant:normal;font-weight:bold;font-stretch:normal;font-size:medium;line-height:88%;font-family:'Open Sans';-inkscape-font-specification:'Open Sans Bold';letter-spacing:0px;word-spacing:0px;fill:#222d32;fill-opacity:1;stroke:none;stroke-width:1px;stroke-linecap:butt;stroke-linejoin:miter;stroke-opacity:1"
               id="path7702"
               inkscape:connector-curvature="0" /><path
               d="m 2316.6531,-2706.1692 q 0,34.4205 -19.6416,52.7272 -19.5463,18.3067 -56.5411,18.3067 h -39.4739 v -139.398 h 43.7645 q 34.1344,0 53.0133,18.0206 18.8788,18.0207 18.8788,50.3435 z m -30.7019,0.7628 q 0,-44.9087 -39.6646,-44.9087 h -15.7323 v 90.7708 h 12.6812 q 42.7157,0 42.7157,-45.8621 z"
               style="font-style:normal;font-variant:normal;font-weight:bold;font-stretch:normal;font-size:medium;line-height:88%;font-family:'Open Sans';-inkscape-font-specification:'Open Sans Bold';letter-spacing:0px;word-spacing:0px;fill:#222d32;fill-opacity:1;stroke:none;stroke-width:1px;stroke-linecap:butt;stroke-linejoin:miter;stroke-opacity:1"
               id="path7704"
               inkscape:connector-curvature="0" /><path
               d="m 2345.5433,-2635.1353 v -139.398 h 29.5578 v 139.398 z"
               style="font-style:normal;font-variant:normal;font-weight:bold;font-stretch:normal;font-size:medium;line-height:88%;font-family:'Open Sans';-inkscape-font-specification:'Open Sans Bold';letter-spacing:0px;word-spacing:0px;fill:#222d32;fill-opacity:1;stroke:none;stroke-width:1px;stroke-linecap:butt;stroke-linejoin:miter;stroke-opacity:1"
               id="path7706"
               inkscape:connector-curvature="0" /><path
               d="m 2536.9058,-2705.025 q 0,34.6111 -17.1626,53.2039 -17.1625,18.5928 -49.1993,18.5928 -32.0368,0 -49.1993,-18.5928 -17.1626,-18.5928 -17.1626,-53.3946 0,-34.8018 17.1626,-53.1086 17.2579,-18.402 49.39,-18.402 32.1321,0 49.104,18.4974 17.0672,18.4974 17.0672,53.2039 z m -101.7358,0 q 0,23.3601 8.8673,35.1832 8.8673,11.8231 26.5066,11.8231 35.3739,0 35.3739,-47.0063 0,-47.1017 -35.1832,-47.1017 -17.6393,0 -26.602,11.9185 -8.9626,11.8231 -8.9626,35.1832 z"
               style="font-style:normal;font-variant:normal;font-weight:bold;font-stretch:normal;font-size:medium;line-height:88%;font-family:'Open Sans';-inkscape-font-specification:'Open Sans Bold';letter-spacing:0px;word-spacing:0px;fill:#222d32;fill-opacity:1;stroke:none;stroke-width:1px;stroke-linecap:butt;stroke-linejoin:miter;stroke-opacity:1"
               id="path7708"
               inkscape:connector-curvature="0" /><path
               id="path7720"
               style="font-style:normal;font-variant:normal;font-weight:bold;font-stretch:normal;font-size:medium;line-height:88%;font-family:'Open Sans';-inkscape-font-specification:'Open Sans Bold';letter-spacing:0px;word-spacing:0px;fill:#222d32;fill-opacity:1;stroke:none;stroke-width:1px;stroke-linecap:butt;stroke-linejoin:miter;stroke-opacity:1"
               d="m 1914.8587,-2673.8464 q 0,18.8788 -13.6347,29.7484 -13.5393,10.8697 -37.7576,10.8697 -22.3113,0 -39.4738,-8.3906 v -27.4601 q 14.1114,6.2929 23.8368,8.8673 9.8208,2.5744 17.9254,2.5744 9.7254,0 14.8742,-3.7186 5.2441,-3.7185 5.2441,-11.0603 0,-4.0999 -2.2883,-7.2464 -2.2884,-3.2418 -6.7697,-6.1976 -4.386,-2.9557 -18.0207,-9.4394 -12.7766,-6.0069 -19.1648,-11.537 -6.3883,-5.5302 -10.2022,-12.8719 -3.8139,-7.3418 -3.8139,-17.1626 0,-18.4974 12.4905,-29.081 12.5859,-10.5835 34.7065,-10.5835 10.8696,0 20.6904,2.5744 9.9161,2.5743 20.6904,7.2464 l -9.5347,22.9787 q -11.1557,-4.5767 -18.4975,-6.3883 -7.2464,-1.8116 -14.3021,-1.8116 -8.3906,0 -12.8719,3.9093 -4.4813,3.9092 -4.4813,10.2022 0,3.9092 1.8116,6.865 1.8116,2.8604 5.7208,5.6255 4.0046,2.6697 18.7835,9.7254 19.5462,9.3441 26.7926,18.7835 7.2464,9.344 7.2464,22.9787 z"
               inkscape:connector-curvature="0" /><path
               id="path7722"
               style="font-style:normal;font-variant:normal;font-weight:bold;font-stretch:normal;font-size:medium;line-height:88%;font-family:'Open Sans';-inkscape-font-specification:'Open Sans Bold';letter-spacing:0px;word-spacing:0px;fill:#222d32;fill-opacity:1;stroke:none;stroke-width:1px;stroke-linecap:butt;stroke-linejoin:miter;stroke-opacity:1"
               d="m 1993.9018,-2635.1353 h -29.5577 v -114.7984 h -37.853 v -24.5996 h 105.2637 v 24.5996 h -37.853 z"
               inkscape:connector-curvature="0" /><path
               id="path7724"
               style="font-style:normal;font-variant:normal;font-weight:bold;font-stretch:normal;font-size:medium;line-height:88%;font-family:'Open Sans';-inkscape-font-specification:'Open Sans Bold';letter-spacing:0px;word-spacing:0px;fill:#222d32;fill-opacity:1;stroke:none;stroke-width:1px;stroke-linecap:butt;stroke-linejoin:miter;stroke-opacity:1"
               d="m 2166.8622,-2774.5333 v 90.1987 q 0,15.4463 -6.9604,27.0787 -6.865,11.6324 -19.9276,17.83 -13.0626,6.1976 -30.8926,6.1976 -26.888,0 -41.7622,-13.7301 -14.8742,-13.8254 -14.8742,-37.7576 v -89.8173 h 29.4623 v 85.336 q 0,16.1137 6.4837,23.6462 6.4836,7.5324 21.4532,7.5324 14.4928,0 20.9764,-7.5324 6.579,-7.6278 6.579,-23.8369 v -85.1453 z"
               inkscape:connector-curvature="0" /><path
               id="path7726"
               style="font-style:normal;font-variant:normal;font-weight:bold;font-stretch:normal;font-size:medium;line-height:88%;font-family:'Open Sans';-inkscape-font-specification:'Open Sans Bold';letter-spacing:0px;word-spacing:0px;fill:#222d32;fill-opacity:1;stroke:none;stroke-width:1px;stroke-linecap:butt;stroke-linejoin:miter;stroke-opacity:1"
               d="m 2316.6531,-2706.1692 q 0,34.4205 -19.6416,52.7272 -19.5463,18.3067 -56.5411,18.3067 h -39.4739 v -139.398 h 43.7645 q 34.1344,0 53.0133,18.0206 18.8788,18.0207 18.8788,50.3435 z m -30.7019,0.7628 q 0,-44.9087 -39.6646,-44.9087 h -15.7323 v 90.7708 h 12.6812 q 42.7157,0 42.7157,-45.8621 z"
               inkscape:connector-curvature="0" /><path
               id="path7728"
               style="font-style:normal;font-variant:normal;font-weight:bold;font-stretch:normal;font-size:medium;line-height:88%;font-family:'Open Sans';-inkscape-font-specification:'Open Sans Bold';letter-spacing:0px;word-spacing:0px;fill:#222d32;fill-opacity:1;stroke:none;stroke-width:1px;stroke-linecap:butt;stroke-linejoin:miter;stroke-opacity:1"
               d="m 2345.5433,-2635.1353 v -139.398 h 29.5578 v 139.398 z"
               inkscape:connector-curvature="0" /><path
               id="path7730"
               style="font-style:normal;font-variant:normal;font-weight:bold;font-stretch:normal;font-size:medium;line-height:88%;font-family:'Open Sans';-inkscape-font-specification:'Open Sans Bold';letter-spacing:0px;word-spacing:0px;fill:#222d32;fill-opacity:1;stroke:none;stroke-width:1px;stroke-linecap:butt;stroke-linejoin:miter;stroke-opacity:1"
               d="m 2536.9058,-2705.025 q 0,34.6111 -17.1626,53.2039 -17.1625,18.5928 -49.1993,18.5928 -32.0368,0 -49.1993,-18.5928 -17.1626,-18.5928 -17.1626,-53.3946 0,-34.8018 17.1626,-53.1086 17.2579,-18.402 49.39,-18.402 32.1321,0 49.104,18.4974 17.0672,18.4974 17.0672,53.2039 z m -101.7358,0 q 0,23.3601 8.8673,35.1832 8.8673,11.8231 26.5066,11.8231 35.3739,0 35.3739,-47.0063 0,-47.1017 -35.1832,-47.1017 -17.6393,0 -26.602,11.9185 -8.9626,11.8231 -8.9626,35.1832 z"
               inkscape:connector-curvature="0" /></g></g></g><circle
         class="cls-6"
         cx="229.75447"
         cy="76.526497"
         r="1.0682294"
         id="circle54631"
         style="fill:#ffffff;stroke-width:0.316044" /><circle
         class="cls-6"
         cx="238.7807"
         cy="76.526497"
         r="1.0682294"
         id="circle54633"
         style="fill:#ffffff;stroke-width:0.316044" /></g></g></svg>
